# xmcd CD database file
#
# Track frame offsets:
#	150
#	20704
#	60899
#	79478
#	104857
#	124693
#	145848
#	160210
#	184994
#	212322
#	242365
#	262296
#	285898
#	300923
#
# Disc length: 4362 seconds
#
# Revision: 2
# Processed by: cddbd v1.4b41PL1 Copyright (c) Steve Scherf et al.
# Submitted via: Feurio! 1.58ß - http://www.feurio.com
#
DISCID=bf11080e,c011080e
DTITLE=Various Artist - Various Artists Volume 13
DYEAR=1900
DGENRE=
TTITLE0=The Rolling Stones - Angie
TTITLE1=Luther Allison - Thrill Is Gone
TTITLE2=America - A Horse With No Name
TTITLE3=Stan Bush  and Barrage - Love Don t Lie
TTITLE4=Matthew's Southern Comfort - Woodstock
TTITLE5=Whitesnake - Is This Love
TTITLE6=Edie Brickell  and New Bohemians - Circle
TTITLE7=Twelfth Night - Love Song
TTITLE8=O'  Band - A Smile is a diamond
TTITLE9=Nils Lofgren - Keith Don't Go
TTITLE10=Aerosmith - Dream On
TTITLE11=Dire Straits - Once Upon A Time In The West
TTITLE12=Tom Petty  and the Heartbreakers - Refugee
TTITLE13=BAP - Jupp
EXTD=Rüdiger - Various Artists Volume 13
EXTT0=
EXTT1=
EXTT2=
EXTT3=
EXTT4=
EXTT5=
EXTT6=
EXTT7=
EXTT8=
EXTT9=
EXTT10=
EXTT11=
EXTT12=
EXTT13=
PLAYORDER=
